<svg width="48" height="48" viewBox="0 0 48 48" fill="none" xmlns="http://www.w3.org/2000/svg">
<path d="M-9.53674e-05 23.9999C-0.00873804 27.1528 0.608072 30.276 1.8146 33.1889C3.02113 36.1018 4.79347 38.7468 7.02896 40.9701C9.25232 43.206 11.8971 44.9783 14.8102 46.185C17.7233 47.3917 20.8468 48.0086 23.9999 47.9999C27.153 48.0087 30.2765 47.392 33.1896 46.1855C36.1027 44.9789 38.7474 43.2067 40.9709 40.9711C43.2065 38.7477 44.9789 36.1025 46.1855 33.1894C47.392 30.2763 48.0087 27.153 47.9999 23.9999C48.0084 20.8468 47.3914 17.7235 46.1847 14.8105C44.978 11.8974 43.2056 9.25218 40.9699 7.02872C38.7465 4.79323 36.1018 3.02089 33.1889 1.81436C30.276 0.607832 27.1528 -0.00873423 23.9999 -9.15527e-05C20.847 -0.00878945 17.7236 0.607829 14.8107 1.81436C11.8978 3.02089 9.25326 4.79318 7.02993 7.02872C4.79428 9.25221 3.02179 11.8974 1.81509 14.8105C0.608393 17.7235 -0.00857375 20.8468 -9.53674e-05 23.9999ZM27.9999 33.079C28.0001 33.2 27.9764 33.3198 27.9301 33.4315C27.8837 33.5433 27.8156 33.6446 27.7299 33.7299C27.557 33.9014 27.3235 33.9975 27.08 33.9975C26.8365 33.9975 26.6027 33.9014 26.4298 33.7299L17.2209 24.5209C17.135 24.4357 17.067 24.3343 17.0207 24.2226C16.9743 24.1108 16.9505 23.991 16.9508 23.87C16.9505 23.7492 16.9743 23.6296 17.0207 23.518C17.067 23.4064 17.135 23.3052 17.2209 23.2201L26.4298 14.0111C26.5151 13.9253 26.6167 13.8573 26.7284 13.8109C26.8402 13.7646 26.96 13.7409 27.081 13.7411C27.2019 13.741 27.3218 13.7646 27.4335 13.8109C27.5452 13.8573 27.6465 13.9254 27.7318 14.0111C27.8177 14.0964 27.8859 14.1977 27.9323 14.3095C27.9786 14.4212 28.0022 14.541 28.0019 14.662C28.0022 14.783 27.9786 14.9028 27.9323 15.0146C27.8859 15.1263 27.8177 15.2277 27.7318 15.3129L19.173 23.871L27.7318 32.4301C27.8171 32.5152 27.8848 32.6161 27.9308 32.7274C27.9768 32.8388 28.0003 32.9585 27.9999 33.079Z" fill="white"/>
</svg>
