<svg width="48" height="48" viewBox="0 0 48 48" fill="none" xmlns="http://www.w3.org/2000/svg">
<path d="M24.0001 48.0001C20.8472 48.0087 17.724 47.3919 14.8111 46.1854C11.8982 44.9789 9.25323 43.2065 7.02988 40.971C4.79404 38.7477 3.02174 36.1029 1.81503 33.1898C0.608324 30.2767 -0.00860694 27.1532 9.23441e-05 24.0001C-0.00868268 20.847 0.608012 17.7235 1.81455 14.8104C3.02108 11.8973 4.79329 9.25262 7.0289 7.02915C9.25234 4.79349 11.8975 3.02108 14.8106 1.81455C17.7237 0.60801 20.847 -0.00873676 24.0001 9.34943e-05C27.1532 -0.00844011 30.2765 0.608579 33.1895 1.81528C36.1026 3.02198 38.7478 4.79442 40.9713 7.03012C43.2068 9.25348 44.9791 11.8982 46.1856 14.8111C47.3922 17.724 48.0087 20.8472 48.0001 24.0001C48.0088 27.153 47.3922 30.2764 46.1856 33.1893C44.9791 36.1022 43.2068 38.7467 40.9713 40.9701C38.7478 43.2057 36.1026 44.9782 33.1895 46.1849C30.2765 47.3916 27.1532 48.0086 24.0001 48.0001ZM14.921 20.0001C14.8 19.9999 14.6802 20.0236 14.5685 20.0699C14.4567 20.1163 14.3554 20.1844 14.2701 20.2701C14.0986 20.443 14.0025 20.6765 14.0025 20.92C14.0025 21.1635 14.0986 21.3973 14.2701 21.5702L23.4791 30.7791C23.5643 30.865 23.6657 30.933 23.7774 30.9793C23.8892 31.0257 24.009 31.0495 24.13 31.0492C24.2508 31.0495 24.3704 31.0257 24.482 30.9793C24.5936 30.933 24.6948 30.865 24.7799 30.7791L33.9889 21.5702C34.0747 21.4849 34.1427 21.3833 34.1891 21.2716C34.2354 21.1598 34.2591 21.04 34.2589 20.919C34.259 20.7981 34.2354 20.6782 34.1891 20.5665C34.1427 20.4548 34.0746 20.3535 33.9889 20.2682C33.9036 20.1823 33.8023 20.1141 33.6905 20.0677C33.5788 20.0214 33.459 19.9978 33.338 19.9981C33.217 19.9978 33.0972 20.0214 32.9854 20.0677C32.8737 20.1141 32.7723 20.1823 32.6871 20.2682L24.129 28.827L15.5699 20.2682C15.4848 20.1829 15.3839 20.1152 15.2726 20.0692C15.1612 20.0232 15.0415 19.9997 14.921 20.0001Z" fill="white"/>
</svg>
