<svg width="48" height="48" viewBox="0 0 48 48" fill="none" xmlns="http://www.w3.org/2000/svg">
<path d="M48.0001 23.9999C48.0087 27.1528 47.3919 30.276 46.1854 33.1889C44.9789 36.1018 43.2065 38.7468 40.971 40.9701C38.7477 43.206 36.1029 44.9783 33.1898 46.185C30.2767 47.3917 27.1532 48.0086 24.0001 47.9999C20.847 48.0087 17.7235 47.392 14.8104 46.1855C11.8973 44.9789 9.25262 43.2067 7.02915 40.9711C4.79349 38.7477 3.02108 36.1025 1.81455 33.1894C0.60801 30.2763 -0.00873676 27.153 9.34943e-05 23.9999C-0.00844011 20.8468 0.608579 17.7235 1.81528 14.8105C3.02198 11.8974 4.79442 9.25218 7.03012 7.02872C9.25348 4.79323 11.8982 3.02089 14.8111 1.81436C17.724 0.607832 20.8472 -0.00873423 24.0001 -9.15527e-05C27.153 -0.00878945 30.2764 0.607829 33.1893 1.81436C36.1022 3.02089 38.7467 4.79318 40.9701 7.02872C43.2057 9.25221 44.9782 11.8974 46.1849 14.8105C47.3916 17.7235 48.0086 20.8468 48.0001 23.9999ZM20.0001 33.079C19.9999 33.2 20.0236 33.3198 20.0699 33.4315C20.1163 33.5433 20.1844 33.6446 20.2701 33.7299C20.443 33.9014 20.6765 33.9975 20.92 33.9975C21.1635 33.9975 21.3973 33.9014 21.5702 33.7299L30.7791 24.5209C30.865 24.4357 30.933 24.3343 30.9793 24.2226C31.0257 24.1108 31.0495 23.991 31.0492 23.87C31.0495 23.7492 31.0257 23.6296 30.9793 23.518C30.933 23.4064 30.865 23.3052 30.7791 23.2201L21.5702 14.0111C21.4849 13.9253 21.3833 13.8573 21.2716 13.8109C21.1598 13.7646 21.04 13.7409 20.919 13.7411C20.7981 13.741 20.6782 13.7646 20.5665 13.8109C20.4548 13.8573 20.3535 13.9254 20.2682 14.0111C20.1823 14.0964 20.1141 14.1977 20.0677 14.3095C20.0214 14.4212 19.9978 14.541 19.9981 14.662C19.9978 14.783 20.0214 14.9028 20.0677 15.0146C20.1141 15.1263 20.1823 15.2277 20.2682 15.3129L28.827 23.871L20.2682 32.4301C20.1829 32.5152 20.1152 32.6161 20.0692 32.7274C20.0232 32.8388 19.9997 32.9585 20.0001 33.079Z" fill="white"/>
</svg>
