<svg width="48" height="48" viewBox="0 0 48 48" fill="none" xmlns="http://www.w3.org/2000/svg">
<path d="M24.0001 -9.53674e-05C20.8472 -0.00873804 17.724 0.608072 14.8111 1.8146C11.8982 3.02113 9.25323 4.79347 7.02988 7.02896C4.79404 9.25232 3.02174 11.8971 1.81503 14.8102C0.608324 17.7233 -0.00860694 20.8468 9.23441e-05 23.9999C-0.00868268 27.153 0.608012 30.2765 1.81455 33.1896C3.02108 36.1027 4.79329 38.7474 7.0289 40.9709C9.25234 43.2065 11.8975 44.9789 14.8106 46.1855C17.7237 47.392 20.847 48.0087 24.0001 47.9999C27.1532 48.0084 30.2765 47.3914 33.1895 46.1847C36.1026 44.978 38.7478 43.2056 40.9713 40.9699C43.2068 38.7465 44.9791 36.1018 46.1856 33.1889C47.3922 30.276 48.0087 27.1528 48.0001 23.9999C48.0088 20.847 47.3922 17.7236 46.1856 14.8107C44.9791 11.8978 43.2068 9.25326 40.9713 7.02993C38.7478 4.79428 36.1026 3.02179 33.1895 1.81509C30.2765 0.608393 27.1532 -0.00857375 24.0001 -9.53674e-05ZM14.921 27.9999C14.8 28.0001 14.6802 27.9764 14.5685 27.9301C14.4567 27.8837 14.3554 27.8156 14.2701 27.7299C14.0986 27.557 14.0025 27.3235 14.0025 27.08C14.0025 26.8365 14.0986 26.6027 14.2701 26.4298L23.4791 17.2209C23.5643 17.135 23.6657 17.067 23.7774 17.0207C23.8892 16.9743 24.009 16.9505 24.13 16.9508C24.2508 16.9505 24.3704 16.9743 24.482 17.0207C24.5936 17.067 24.6948 17.135 24.7799 17.2209L33.9889 26.4298C34.0747 26.5151 34.1427 26.6167 34.1891 26.7284C34.2354 26.8402 34.2591 26.96 34.2589 27.081C34.259 27.2019 34.2354 27.3218 34.1891 27.4335C34.1427 27.5452 34.0746 27.6465 33.9889 27.7318C33.9036 27.8177 33.8023 27.8859 33.6905 27.9323C33.5788 27.9786 33.459 28.0022 33.338 28.0019C33.217 28.0022 33.0972 27.9786 32.9854 27.9323C32.8737 27.8859 32.7723 27.8177 32.6871 27.7318L24.129 19.173L15.5699 27.7318C15.4848 27.8171 15.3839 27.8848 15.2726 27.9308C15.1612 27.9768 15.0415 28.0003 14.921 27.9999Z" fill="white"/>
</svg>
