<svg width="26" height="22" viewBox="0 0 26 22" fill="none" xmlns="http://www.w3.org/2000/svg">
<path d="M25.9904 10.9785C25.9904 11.752 25.3393 12.3578 24.6015 12.3578H23.2125L23.2429 19.2371C23.2429 19.3574 23.2342 19.4691 23.2212 19.5852V20.2812C23.2212 21.2309 22.4442 22 21.485 22H20.7905C20.7428 22 20.695 21.9613 20.6473 21.9957C20.5865 21.9613 20.5258 22 20.465 22H18.0126C17.0534 22 16.2765 21.2309 16.2765 20.2812V16.5C16.2765 15.7395 15.6558 15.125 14.8875 15.125H12.1096C11.3414 15.125 10.7207 15.7395 10.7207 16.5V20.2812C10.7207 21.2309 9.94373 22 8.98449 22H6.55817C6.49307 22 6.42796 21.9957 6.36285 21.9914C6.31077 21.9957 6.25868 22 6.2066 22H5.51212C4.55332 22 3.77594 21.2309 3.77594 20.2812V15.4688C3.77594 15.4301 3.77724 15.3871 3.77985 15.3484V12.3578H2.38916C1.60658 12.3578 0.998047 11.752 0.998047 10.9785C0.998047 10.5918 1.12843 10.248 1.43253 9.94727L12.561 0.344437C12.8649 0.0430547 13.2121 0 13.5159 0C13.8198 0 14.167 0.0861094 14.4318 0.301383L25.513 9.94727C25.8602 10.248 26.0381 10.5918 25.9904 10.9785Z" fill="#5D5D70"/>
</svg>
