<svg xmlns="http://www.w3.org/2000/svg" width="30.929" height="30.927" viewBox="0 0 30.929 30.927">
  <g id="megaphone" transform="translate(0 -0.008)">
    <path id="XMLID_394_" d="M17.923.966a1.918,1.918,0,0,0-3.5,1.5L11.665,5.549a.6.6,0,1,0,.9.8L15.02,3.607l3.761,6.514,3.761,6.514-12.956,2.7-2.7-4.685L6.2,13.476l2.741-3.069a.6.6,0,1,0-.9-.8L5.075,12.925,2.214,14.577a4.424,4.424,0,0,0,1.067,8.1,4.451,4.451,0,0,0,1.152.153,4.383,4.383,0,0,0,1.881-.425l.764,1.323a1.686,1.686,0,0,0,2.29.624l3.458,5.99a1.182,1.182,0,0,0,1.613.432l2.315-1.336a1.181,1.181,0,0,0,.066-2l-.685-.459-2.827-4.9a1.687,1.687,0,0,0,.6-2.3l-.061-.106,9.384-1.956A1.917,1.917,0,0,0,26.28,15.44ZM3.594,21.515a3.216,3.216,0,0,1-.776-5.891l2.422-1.4L6.848,17.01l1.608,2.785-2.422,1.4a3.2,3.2,0,0,1-2.44.321ZM15.346,27.9l.766.513-2.254,1.3-3.444-5.966,1.847-1.067,2.9,5.019a.6.6,0,0,0,.187.2Zm-2.48-7.514a.478.478,0,0,1-.175.652l-.511.295h0l-2.893,1.67h0l-.51.295a.478.478,0,0,1-.652-.175l-.756-1.31L9.5,20.588l3.107-.648Zm12.108-3.377a.709.709,0,0,1-.969-.26L15.649,2.28a.709.709,0,0,1,1.228-.709l8.356,14.474A.71.71,0,0,1,24.974,17.013Z" transform="translate(0 0)" fill="#fff"/>
    <path id="XMLID_398_" d="M396.418,68.171a.6.6,0,0,0,.825.221l3.9-2.253a.6.6,0,0,0-.6-1.046l-3.9,2.253A.6.6,0,0,0,396.418,68.171Z" transform="translate(-372.396 -61.077)" fill="#fff"/>
    <path id="XMLID_399_" d="M372.788,16.2a.6.6,0,0,0,.825-.221l1.859-3.221a.6.6,0,0,0-1.046-.6l-1.859,3.221A.6.6,0,0,0,372.788,16.2Z" transform="translate(-349.986 -11.127)" fill="#fff"/>
    <path id="XMLID_400_" d="M426.568,141.543h-2.941a.6.6,0,1,0,0,1.208h2.941a.6.6,0,1,0,0-1.208Z" transform="translate(-397.47 -132.985)" fill="#fff"/>
    <path id="XMLID_401_" d="M493.035,47.256a.605.605,0,1,0,.176.427A.61.61,0,0,0,493.035,47.256Z" transform="translate(-462.283 -44.228)" fill="#fff"/>
    <path id="XMLID_402_" d="M161.2,123.158a.6.6,0,1,0-.427-.176A.609.609,0,0,0,161.2,123.158Z" transform="translate(-150.892 -114.576)" fill="#fff"/>
  </g>
</svg>
