<svg xmlns="http://www.w3.org/2000/svg" xmlns:xlink="http://www.w3.org/1999/xlink" width="35" height="35" viewBox="0 0 35 35">
  <defs>
    <clipPath id="clip-path">
      <circle id="Ellipse_446" data-name="Ellipse 446" cx="17.5" cy="17.5" r="17.5" transform="translate(0 0.001)" fill="#fff" stroke="#707070" stroke-width="1"/>
    </clipPath>
  </defs>
  <g id="line" transform="translate(-1566 -13)">
    <g id="Mask_Group_4" data-name="Mask Group 4" transform="translate(1566 13)" clip-path="url(#clip-path)">
      <g id="Layer_2" data-name="Layer 2" transform="translate(-3.107 -3)">
        <g id="Color_Icon" data-name="Color Icon" transform="translate(0 0)">
          <g id="_06.Line" data-name="06.Line">
            <rect id="Background" width="41" height="41" rx="12" transform="translate(0.107 0)" fill="#4caf50"/>
            <path id="Icon" d="M46.87,37.67C40.891,37.67,36,41.516,36,46.241c0,4.234,3.867,7.782,9.09,8.456.353.073.837.228.959.525a2.084,2.084,0,0,1,.033.952l-.147.9c-.041.262-.217,1.049.948.567A35.314,35.314,0,0,0,55.432,51.5a7.48,7.48,0,0,0,2.307-5.247c0-4.722-4.891-8.571-10.87-8.571ZM42.614,49.054H40.44a.566.566,0,0,1-.557-.54v-4.2a.571.571,0,0,1,1.141,0v3.628h1.59a.555.555,0,0,1,0,1.11Zm2.234-.54a.546.546,0,0,1-.273.509.588.588,0,0,1-.593,0,.546.546,0,0,1-.273-.509v-4.2a.546.546,0,0,1,.273-.509.588.588,0,0,1,.593,0,.546.546,0,0,1,.273.509Zm5.2,0a.536.536,0,0,1-.166.391.576.576,0,0,1-.405.16.55.55,0,0,1-.462-.22L46.8,45.911V48.5a.546.546,0,0,1-.273.509.588.588,0,0,1-.593,0,.546.546,0,0,1-.273-.509V44.3a.554.554,0,0,1,.391-.509.516.516,0,0,1,.174-.029.594.594,0,0,1,.448.223L48.908,46.9V44.3a.571.571,0,0,1,1.141,0Zm3.492-2.655a.555.555,0,0,1,0,1.11h-1.59v.989h1.59a.555.555,0,0,1,0,1.11H51.367a.563.563,0,0,1-.554-.554v-4.2a.564.564,0,0,1,.571-.554h2.174a.555.555,0,0,1,0,1.11H51.951v.989Z" transform="translate(-25.746 -27.192)" fill="#fff"/>
          </g>
        </g>
      </g>
    </g>
  </g>
</svg>
