<svg xmlns="http://www.w3.org/2000/svg" width="35" height="35" viewBox="0 0 35 35">
  <g id="youtube" transform="translate(0.447 0.227)">
    <circle id="Ellipse_263" data-name="Ellipse 263" cx="17.5" cy="17.5" r="17.5" transform="translate(-0.447 -0.227)" fill="#d42428"/>
    <path id="Path_1441" data-name="Path 1441" d="M139.724,103.059h-1.109l.005-.644a.522.522,0,0,1,.522-.52h.071a.523.523,0,0,1,.523.52Zm-4.159-1.38a.474.474,0,0,0-.511.421v3.132a.522.522,0,0,0,1.024,0V102.1A.475.475,0,0,0,135.565,101.679Zm6.754-1.752v5.958a2.688,2.688,0,0,1-2.755,2.6H128.239a2.688,2.688,0,0,1-2.755-2.6V99.928a2.688,2.688,0,0,1,2.755-2.6h11.326A2.688,2.688,0,0,1,142.318,99.928Zm-13.325,6.6v-6.276h1.4v-.93l-3.742-.006v.914l1.168,0v6.294h1.171Zm4.209-5.341h-1.171v3.351a6.064,6.064,0,0,1,0,.813c-.1.26-.523.536-.69.028a6.713,6.713,0,0,1,0-.818l-.005-3.374h-1.164l0,3.321c0,.509-.012.889,0,1.061.029.3.018.66.3.862a1.413,1.413,0,0,0,1.788-.6l0,.692h.94v-5.339Zm3.745,3.837,0-2.789c0-1.063-.8-1.7-1.876-.84l0-2.074-1.17,0-.006,7.158.961-.014.087-.446C136.176,107.154,136.949,106.381,136.947,105.029Zm3.664-.37-.878,0c0,.035,0,.075,0,.119v.49a.479.479,0,0,1-.48.475h-.172a.479.479,0,0,1-.48-.475v-1.289h2.01v-.756a11.957,11.957,0,0,0-.06-1.421c-.144-1-1.547-1.159-2.256-.647a1.325,1.325,0,0,0-.492.662,3.72,3.72,0,0,0-.149,1.179v1.663C137.653,107.428,141.011,107.037,140.611,104.66Zm-4.5-9.03a.791.791,0,0,0,.282.356.818.818,0,0,0,.479.133.742.742,0,0,0,.448-.14,1.07,1.07,0,0,0,.329-.42l-.022.459h1.3V90.469H137.9v4.319a.428.428,0,0,1-.856,0V90.469h-1.072v3.742c0,.477.008.795.023.956A1.634,1.634,0,0,0,136.108,95.63ZM132.155,92.5a4.625,4.625,0,0,1,.133-1.248,1.335,1.335,0,0,1,1.364-.993,1.623,1.623,0,0,1,.777.175,1.294,1.294,0,0,1,.5.455,1.79,1.79,0,0,1,.242.578,4.6,4.6,0,0,1,.065.909v1.4a7.65,7.65,0,0,1-.061,1.134,1.79,1.79,0,0,1-.257.674,1.218,1.218,0,0,1-.5.461,1.6,1.6,0,0,1-.708.149,1.958,1.958,0,0,1-.754-.127,1.035,1.035,0,0,1-.481-.385,1.693,1.693,0,0,1-.245-.622,5.972,5.972,0,0,1-.073-1.094V92.5Zm1.021,2.2a.521.521,0,1,0,1.037,0V91.746a.521.521,0,1,0-1.037,0Zm-3.611,1.491H130.8V91.936l1.455-3.646h-1.346L130.132,91l-.784-2.715h-1.332l1.547,3.655Z" transform="translate(-116.448 -81.885)" fill="#fff"/>
  </g>
</svg>
