<svg xmlns="http://www.w3.org/2000/svg" xmlns:xlink="http://www.w3.org/1999/xlink" width="35" height="35" viewBox="0 0 35 35">
  <defs>
    <linearGradient id="linear-gradient" x1="0.146" y1="0.854" x2="0.854" y2="0.146" gradientUnits="objectBoundingBox">
      <stop offset="0" stop-color="#d6b43d"/>
      <stop offset="0.052" stop-color="#dba93f"/>
      <stop offset="0.143" stop-color="#e88a45"/>
      <stop offset="0.164" stop-color="#eb8246"/>
      <stop offset="0.211" stop-color="#e7774d"/>
      <stop offset="0.294" stop-color="#dd5860"/>
      <stop offset="0.31" stop-color="#db5164"/>
      <stop offset="0.464" stop-color="#d2466c"/>
      <stop offset="0.567" stop-color="#c93b73"/>
      <stop offset="0.607" stop-color="#cb3179"/>
      <stop offset="0.733" stop-color="#a23394"/>
      <stop offset="0.856" stop-color="#7f35ab"/>
      <stop offset="0.91" stop-color="#7d35ab"/>
      <stop offset="0.94" stop-color="#7537aa"/>
      <stop offset="0.964" stop-color="#673aa9"/>
      <stop offset="0.985" stop-color="#533da8"/>
      <stop offset="1" stop-color="#4041a6"/>
    </linearGradient>
  </defs>
  <g id="instagram" transform="translate(0)" style="isolation: isolate">
    <g id="Layer_1" data-name="Layer 1" transform="translate(0 0)">
      <circle id="Ellipse_262" data-name="Ellipse 262" cx="17.5" cy="17.5" r="17.5" transform="translate(0 0)" fill="url(#linear-gradient)"/>
      <g id="Group_1020" data-name="Group 1020" transform="translate(7.149 7.259)">
        <path id="Path_1429" data-name="Path 1429" d="M128.749,122.736c2.764,0,3.089,0,4.173.054a4.854,4.854,0,0,1,1.9.375,3.45,3.45,0,0,1,1.192.751,2.772,2.772,0,0,1,.759,1.18,5.261,5.261,0,0,1,.379,1.877c.054,1.072.054,1.394.054,4.129s0,3.056-.054,4.129a4.716,4.716,0,0,1-.379,1.877,3.4,3.4,0,0,1-.759,1.18,2.81,2.81,0,0,1-1.192.751,5.415,5.415,0,0,1-1.9.375c-1.084.054-1.409.054-4.173.054s-3.089,0-4.173-.054a4.854,4.854,0,0,1-1.9-.375,3.45,3.45,0,0,1-1.192-.751,2.774,2.774,0,0,1-.759-1.18,5.264,5.264,0,0,1-.379-1.877c-.054-1.072-.054-1.394-.054-4.129s0-3.056.054-4.129a4.717,4.717,0,0,1,.379-1.877,3.4,3.4,0,0,1,.759-1.18,2.81,2.81,0,0,1,1.192-.751,5.416,5.416,0,0,1,1.9-.375c1.084-.054,1.409-.054,4.173-.054m0-1.823c-2.818,0-3.143,0-4.281.054a7.3,7.3,0,0,0-2.493.483,4.9,4.9,0,0,0-1.843,1.18,4.839,4.839,0,0,0-1.192,1.823,7.09,7.09,0,0,0-.488,2.467c-.054,1.072-.054,1.448-.054,4.236s0,3.11.054,4.236a7.09,7.09,0,0,0,.488,2.467,4.839,4.839,0,0,0,1.192,1.823,4.9,4.9,0,0,0,1.843,1.18,7.3,7.3,0,0,0,2.493.483c1.084.054,1.463.054,4.281.054s3.143,0,4.282-.054a7.3,7.3,0,0,0,2.493-.483,4.9,4.9,0,0,0,1.843-1.18,4.838,4.838,0,0,0,1.192-1.823,7.088,7.088,0,0,0,.488-2.467c.054-1.072.054-1.448.054-4.236s0-3.11-.054-4.236a7.088,7.088,0,0,0-.488-2.467,4.838,4.838,0,0,0-1.192-1.823,4.9,4.9,0,0,0-1.843-1.18,7.3,7.3,0,0,0-2.493-.483c-1.138-.054-1.463-.054-4.282-.054" transform="translate(-118.398 -120.913)" fill="#fff" fill-rule="evenodd"/>
        <path id="Path_1430" data-name="Path 1430" d="M188.52,184.9a5.391,5.391,0,1,0,5.448,5.39,5.428,5.428,0,0,0-5.448-5.39m0,8.855a3.52,3.52,0,1,1,3.558-3.52,3.528,3.528,0,0,1-3.558,3.52" transform="translate(-178.169 -180.051)" fill="#fff" fill-rule="evenodd"/>
        <path id="Path_1431" data-name="Path 1431" d="M314.6,171.757a1.09,1.09,0,1,1-1.09-1.078,1.066,1.066,0,0,1,1.09,1.078" transform="translate(-297.712 -166.906)" fill="#fff" fill-rule="evenodd"/>
      </g>
    </g>
  </g>
</svg>
